<svg xmlns="http://www.w3.org/2000/svg" viewBox="0 0 24.182 27.636">
    <path data-name="Icon awesome-calendar-alt" d="M0 25.045a2.592 2.592 0 0 0 2.591 2.591h19a2.592 2.592 0 0 0 2.591-2.591V10.364H0zm17.273-10.579a.65.65 0 0 1 .648-.648h2.159a.65.65 0 0 1 .648.648v2.159a.65.65 0 0 1-.648.648h-2.16a.65.65 0 0 1-.648-.648zm0 6.909a.65.65 0 0 1 .648-.648h2.159a.65.65 0 0 1 .648.648v2.159a.65.65 0 0 1-.648.648h-2.16a.65.65 0 0 1-.648-.648zm-6.909-6.909a.65.65 0 0 1 .648-.648h2.158a.65.65 0 0 1 .648.648v2.159a.65.65 0 0 1-.648.648h-2.159a.65.65 0 0 1-.648-.648zm0 6.909a.65.65 0 0 1 .648-.648h2.158a.65.65 0 0 1 .648.648v2.159a.65.65 0 0 1-.648.648h-2.159a.65.65 0 0 1-.648-.648zm-6.909-6.909a.65.65 0 0 1 .648-.648h2.158a.65.65 0 0 1 .648.648v2.159a.65.65 0 0 1-.648.648H4.1a.65.65 0 0 1-.648-.648zm0 6.909a.65.65 0 0 1 .648-.648h2.158a.65.65 0 0 1 .648.648v2.159a.65.65 0 0 1-.648.648H4.1a.65.65 0 0 1-.648-.648zm18.136-17.92H19V.864A.866.866 0 0 0 18.136 0h-1.727a.866.866 0 0 0-.864.864v2.591H8.636V.864A.866.866 0 0 0 7.773 0H6.045a.866.866 0 0 0-.864.864v2.591h-2.59A2.592 2.592 0 0 0 0 6.045v2.591h24.182V6.045a2.592 2.592 0 0 0-2.591-2.59z" />
</svg>
