<svg xmlns="http://www.w3.org/2000/svg" viewBox="0 0 29.243 24.75">
    <g id="Icon_ionic-ios-log-out" data-name="Icon ionic-ios-log-out" transform="translate(-3.375 -5.625)">
        <path id="Tracé_10" data-name="Tracé 10" class="cls-1" d="M21.938 26.156a.987.987 0 0 0-.984.984 1.269 1.269 0 0 1-1.266 1.266H6.609a1.269 1.269 0 0 1-1.266-1.266V8.859a1.269 1.269 0 0 1 1.266-1.265h13.079a1.269 1.269 0 0 1 1.266 1.266.984.984 0 0 0 1.969 0 3.235 3.235 0 0 0-3.234-3.234H6.609a3.235 3.235 0 0 0-3.234 3.233v18.282a3.235 3.235 0 0 0 3.234 3.234h13.079a3.235 3.235 0 0 0 3.234-3.234.987.987 0 0 0-.984-.985z"/>
        <path id="Tracé_11" data-name="Tracé 11" class="cls-1" d="M26.22 11.116a.978.978 0 0 0-.7-.288.961.961 0 0 0-.7.288.98.98 0 0 0 0 1.392l4.584 4.514H11.391a.984.984 0 0 0 0 1.969h18.042L24.961 23.5a.993.993 0 0 0 0 1.392l.007.007a1.017 1.017 0 0 0 .689.274.95.95 0 0 0 .7-.288l5.808-5.794a1.381 1.381 0 0 0 0-2.053z"/>
    </g>
</svg>
