<svg xmlns="http://www.w3.org/2000/svg" viewBox="0 0 22.493 28.132">
    <g id="Icon_ionic-ios-notifications" data-name="Icon ionic-ios-notifications" transform="translate(-6.761 -3.93)">
        <path id="Tracé_13" data-name="Tracé 13" class="cls-1" d="M17.993 32.063c2.187 0 3.382-1.547 3.382-3.727H14.6c0 2.18 1.2 3.727 3.393 3.727z"/>
        <path id="Tracé_14" data-name="Tracé 14" class="cls-1" d="M28.969 24.764c-1.083-1.427-3.213-2.264-3.213-8.655 0-6.56-2.9-9.2-5.6-9.83-.253-.063-.436-.148-.436-.415v-.2a1.716 1.716 0 1 0-3.431 0v.2c0 .26-.183.352-.436.415-2.707.64-5.6 3.27-5.6 9.83 0 6.391-2.13 7.221-3.213 8.655A1.4 1.4 0 0 0 8.163 27h19.695a1.4 1.4 0 0 0 1.111-2.236z"/>
    </g>
</svg>
