<svg xmlns="http://www.w3.org/2000/svg" viewBox="0 0 29.171 18.563">
    <path data-name="Icon material-people" d="M21.389 15.456a3.978 3.978 0 1 0-3.978-3.978 3.961 3.961 0 0 0 3.978 3.978zm-10.608 0A3.978 3.978 0 1 0 6.8 11.478a3.961 3.961 0 0 0 3.982 3.978zm0 2.652c-3.089 0-9.282 1.551-9.282 4.641v3.315h18.564v-3.316c0-3.089-6.192-4.64-9.281-4.64zm10.608 0c-.385 0-.822.027-1.286.066a5.6 5.6 0 0 1 2.612 4.575v3.315h7.956v-3.316c0-3.089-6.192-4.64-9.282-4.64z" transform="translate(-1.5 -7.5)" />
</svg>
