<svg xmlns="http://www.w3.org/2000/svg" width="18" height="18" viewBox="0 0 18 18">
  <g id="Groupe_1265" data-name="Groupe 1265" transform="translate(-24 -584)">
    <path id="Icon_material-find-in-page" data-name="Icon material-find-in-page" d="M20.4,18.831V8.4L15,3H7.8A1.8,1.8,0,0,0,6.009,4.8L6,19.2A1.8,1.8,0,0,0,7.791,21H18.6a1.784,1.784,0,0,0,1.071-.36l-3.987-3.987A4.5,4.5,0,1,1,17.7,12.9a4.481,4.481,0,0,1-.747,2.475ZM10.5,12.9a2.7,2.7,0,1,0,2.7-2.7A2.7,2.7,0,0,0,10.5,12.9Z" transform="translate(20 581)" fill="#fff"/>
    <rect id="Rectangle_1959" data-name="Rectangle 1959" width="18" height="18" transform="translate(24 584)" fill="none"/>
  </g>
</svg>
