<svg xmlns="http://www.w3.org/2000/svg" viewBox="0 0 29.181 30">
    <path data-name="Icon material-settings" d="M29.145 19.47a11.69 11.69 0 0 0 .1-1.47 11.69 11.69 0 0 0-.1-1.47l3.165-2.475a.757.757 0 0 0 .18-.96l-3-5.19a.754.754 0 0 0-.915-.33l-3.735 1.5a10.959 10.959 0 0 0-2.535-1.47l-.57-3.975A.731.731 0 0 0 21 3h-6a.731.731 0 0 0-.735.63L13.7 7.605a11.524 11.524 0 0 0-2.535 1.47l-3.735-1.5a.732.732 0 0 0-.915.33l-3 5.19a.74.74 0 0 0 .18.96l3.16 2.475A11.9 11.9 0 0 0 6.75 18a11.9 11.9 0 0 0 .105 1.47L3.69 21.945a.757.757 0 0 0-.18.96l3 5.19a.754.754 0 0 0 .915.33l3.735-1.5a10.959 10.959 0 0 0 2.535 1.47l.57 3.975A.731.731 0 0 0 15 33h6a.731.731 0 0 0 .735-.63l.57-3.975a11.524 11.524 0 0 0 2.535-1.47l3.735 1.5a.732.732 0 0 0 .915-.33l3-5.19a.757.757 0 0 0-.18-.96l-3.165-2.475zM18 23.25A5.25 5.25 0 1 1 23.25 18 5.256 5.256 0 0 1 18 23.25z" transform="translate(-3.406 -3)" />
</svg>
