<svg id="HOME" xmlns="http://www.w3.org/2000/svg" width="15.75" height="18" viewBox="0 0 18 18">
  <g id="Icon_ionic-ios-home" data-name="Icon ionic-ios-home" transform="translate(0 0)">
    <path id="Union_14" data-name="Union 14" d="M11.131,18a.087.087,0,0,1-.085-.088V11.9a.088.088,0,0,0-.086-.086H7.034a.087.087,0,0,0-.084.086v6.015A.089.089,0,0,1,6.864,18H2.255a.088.088,0,0,1-.087-.088V8.029A.183.183,0,0,1,2.233,7.9L8.89,2.534a.163.163,0,0,1,.213,0L15.761,7.9a.178.178,0,0,1,.064.133v9.882a.088.088,0,0,1-.087.088ZM.179,8.031a.652.652,0,0,1,.051-.945L2.076,5.5V1.334a.091.091,0,0,1,.088-.091H4.758a.091.091,0,0,1,.088.091V3.241L8.4.217a.918.918,0,0,1,1.186,0l8.174,6.843A.651.651,0,0,1,18,7.521.64.64,0,0,1,17.816,8a.584.584,0,0,1-.808.046L9.053,1.387A.1.1,0,0,0,9,1.37a.078.078,0,0,0-.055.017L.987,8.077a.592.592,0,0,1-.382.141A.583.583,0,0,1,.179,8.031Z" transform="translate(0 0)" fill="#fff"/>
  </g>
  <rect id="Rectangle_787" data-name="Rectangle 787" width="17.999" height="17.999" transform="translate(0.001 0.001)" fill="none"/>
</svg>
